<svg viewBox="0 0 95 32" xmlns="http://www.w3.org/2000/svg" class="MVLogotype" >
    <path fill="#828282" d="M12.7 14.2V5.3l-3.5 8.9H6.8L3.3 5.4v8.8H.5V.8h3.9l3.7 9 3.5-9h4.1v13.4h-3zM18 9.3V.8h3v8.3c0 1.6.9 2.4 2.3 2.4s2.3-.8 2.3-2.4V.8h3v8.6c0 3.4-2.4 5.1-5.3 5.1S18 12.7 18 9.3zM37.7 4.8c-.1-.6-.6-1.7-2.2-1.7-1.1 0-1.8.7-1.8 1.4 0 .6.4 1.1 1.3 1.3l1.8.3c2.5.5 3.9 2.1 3.9 4 0 2.1-1.8 4.2-4.9 4.2-3.7 0-5.3-2.4-5.5-4.3l2.7-.5c.1 1.2.9 2.3 2.8 2.3 1.2 0 1.9-.6 1.9-1.4 0-.7-.5-1.2-1.4-1.3l-1.8-.3c-2.3-.4-3.6-1.9-3.6-3.9 0-2.5 2.2-4.3 4.8-4.3 3.3 0 4.6 2 4.9 3.6l-2.9.6zM42.7 14.2V.8h8.5v2.8h-5.5v2.5h5v2.6h-5v2.6h5.5v2.8h-8.5zM53.5 9.3V.8h3v8.3c0 1.6.9 2.4 2.3 2.4s2.3-.8 2.3-2.4V.8h3v8.6c0 3.4-2.4 5.1-5.3 5.1s-5.3-1.8-5.3-5.2zM78.9 14.2V5.3l-3.5 8.9H73l-3.5-8.8v8.8h-2.8V.8h3.9l3.7 9 3.5-9h4.1v13.4h-3zM91.3 4.8c-.1-.6-.6-1.7-2.2-1.7-1.1 0-1.8.7-1.8 1.4 0 .6.4 1.1 1.3 1.3l1.8.3c2.5.5 3.9 2.1 3.9 4 0 2.1-1.8 4.2-4.9 4.2-3.7 0-5.3-2.4-5.5-4.3l2.7-.7c.1 1.2.9 2.3 2.8 2.3 1.2 0 1.9-.6 1.9-1.4 0-.7-.5-1.2-1.4-1.3l-1.8-.3c-2.3-.4-3.6-1.9-3.6-3.9 0-2.5 2.2-4.3 4.8-4.3 3.3 0 4.6 2 4.9 3.6l-2.9.8zM10.6 17.8h1.9L7.4 31.2H5.6l-5-13.4h2l4 11 4-11zM14.8 31.2V17.8h1.9v13.4h-1.9zM19 24.5c0-4.5 3.3-7 6.6-7 3.1 0 5.2 1.7 5.9 4.2l-1.7.6c-.5-2-2-3.2-4.2-3.2-2.4 0-4.8 1.8-4.8 5.3s2.3 5.3 4.8 5.3c2.3 0 3.7-1.4 4.3-3.2l1.6.6c-.7 2.5-2.8 4.3-5.9 4.3-3.4.1-6.6-2.4-6.6-6.9zM38.7 19.5v11.7h-1.9V19.5h-4.5v-1.7h10.8v1.7h-4.4zM50.5 17.5c3.4 0 6.7 2.5 6.7 7s-3.4 7-6.7 7c-3.4 0-6.7-2.5-6.7-7s3.3-7 6.7-7zm0 12.3c2.5 0 4.8-1.8 4.8-5.3s-2.3-5.3-4.8-5.3-4.8 1.8-4.8 5.3c-.1 3.5 2.3 5.3 4.8 5.3zM63.1 25.7h-2v5.5h-1.9V17.8h5c2.5 0 4.1 1.8 4.1 4 0 1.9-1.2 3.4-3.2 3.8l3.2 5.6h-2.2l-3-5.5zm.9-1.6c1.5 0 2.5-.9 2.5-2.3s-1-2.3-2.5-2.3h-2.8v4.6H64zM71.2 31.2V17.8h1.9v13.4h-1.9zM84.4 27.5h-5.9l-1.4 3.7h-2l5.3-13.4h2.1l5.3 13.4h-2l-1.4-3.7zm-5.2-1.7h4.6l-2.3-6-2.3 6z"></path>
</svg>